<?xml version="1.0" encoding="UTF-8"?>
<svg id="_图层_2" data-name="图层 2" xmlns="http://www.w3.org/2000/svg" viewBox="0 0 798.96 800">
  <defs>
    <style>
      .cls-1 {
        fill: #fff;
      }

      .cls-2 {
        fill: #ea0029;
      }
    </style>
  </defs>
  <g id="_图层_1-2" data-name="图层 1">
    <rect width="798.96" height="800"/>
    <g>
      <path class="cls-1" d="M366.71,163.13h-9.75c-9.88,0-17.89,8.01-17.89,17.89v97.78c0,29.89-25.26,33.57-52.26,33.57s-52.06-3.69-52.06-33.57v-97.78c0-9.88-8.01-17.89-17.89-17.89h-9.95c-9.88,0-17.89,8.01-17.89,17.89v102.96c0,23.07,6.93,39.83,19.12,51.57-12.19,11.74-19.12,28.5-19.12,51.57v102.96c0,9.88,8.01,17.89,17.89,17.89h9.95c9.88,0,17.89-8.01,17.89-17.89v-97.78c0-29.89,25.06-33.57,52.06-33.57s52.26,3.69,52.26,33.57v97.78c0,9.88,8.01,17.89,17.89,17.89h9.75c9.88,0,17.89-8.01,17.89-17.89v-102.96c0-23.07-6.93-39.83-19.12-51.57,12.19-11.74,19.12-28.5,19.12-51.57v-102.96c0-9.88-8.01-17.89-17.89-17.89Z"/>
      <path class="cls-1" d="M494.26,208.85h97.78c9.88,0,17.89-8.01,17.89-17.89v-9.95c0-9.88-8.01-17.89-17.89-17.89h-102.96c-55.69,0-74.71,40.3-74.71,97.78,0,31.01,5.55,57,19.4,74.38-12.36,11.75-19.4,28.59-19.4,51.83v102.96c0,9.88,8.01,17.89,17.89,17.89h9.95c9.88,0,17.89-8.01,17.89-17.89v-97.78c0-29.89,25.06-33.57,52.06-33.57s52.26,3.69,52.26,33.57v97.78c0,9.88,8.01,17.89,17.89,17.89h9.75c9.88,0,17.89-8.01,17.89-17.89v-102.96c0-55.69-40.3-74.71-97.78-74.71-6.39,0-12.55.25-18.48.74-29.33-.34-32.98-25.43-32.98-52.24s3.69-52.06,33.57-52.06Z"/>
    </g>
    <g>
      <rect class="cls-1" x="109.42" y="557.6" width="17.53" height="83.86"/>
      <path class="cls-1" d="M278.72,557.6c-23.16-.16-42.06,18.49-42.22,41.64-.16,23.16,18.49,42.06,41.64,42.22,23.16.16,42.06-18.49,42.21-41.64.16-23.16-18.49-42.06-41.64-42.22ZM278.27,622.27c-12.56-.09-22.67-10.34-22.58-22.89.09-12.56,10.34-22.67,22.89-22.58,12.56.09,22.67,10.34,22.58,22.89-.09,12.56-10.34,22.67-22.89,22.58Z"/>
      <path class="cls-1" d="M359.17,606.76v-49.16h-17.53v49.16c0,25.13,12.75,34.7,40.46,34.7h37.15v-17.16h-37.15c-17.65,0-22.93-3.8-22.93-17.53Z"/>
      <path class="cls-2" d="M186.57,557.6h-20.82v17.53h-17.53v66.33h17.53v-16.86h20.82c21.34,0,28.65-11.46,28.65-33.5s-7.31-33.5-28.65-33.5ZM184.58,607.15h-18.83v-32h18.83c11.45,0,12.85,5.61,12.85,15.96s-1.4,16.04-12.85,16.04Z"/>
      <rect class="cls-2" x="197.43" y="623.93" width="17.53" height="17.53"/>
      <path class="cls-1" d="M590.97,574.38h-49.47c0,9.68,7.85,17.53,17.53,17.53h31.94s0,7.28,0,7.28h-20.81c-21.34,0-28.66,7.23-28.66,21.13s7.32,21.13,23.86,21.13h20.81s22.33,0,22.33,0v-49.55h0c0-9.68-7.85-17.53-17.53-17.53ZM590.97,623.87h-28.12c-1.97,0-3.56-1.59-3.56-3.56v-.02c0-1.97,1.6-3.56,3.56-3.56h28.12s0,7.14,0,7.14Z"/>
      <path class="cls-1" d="M467.38,606.76v-49.16h-17.53v49.16c0,25.13,12.75,34.7,40.46,34.7h37.15v-17.16h-37.15c-17.65,0-22.93-3.8-22.93-17.53Z"/>
      <path class="cls-1" d="M660.89,574.46h-20.81v-16.86h-17.53v83.86h38.35c21.34,0,28.66-11.46,28.66-33.5s-7.32-33.5-28.66-33.5ZM658.9,623.91h-18.82v-31.99h18.82c11.45,0,12.86,5.69,12.86,16.04s-1.4,15.96-12.86,15.96Z"/>
    </g>
  </g>
</svg>